<?xml version="1.0" encoding="UTF-8" standalone="no"?>
<!DOCTYPE svg PUBLIC "-//W3C//DTD SVG 1.1//EN" "http://www.w3.org/Graphics/SVG/1.1/DTD/svg11.dtd">
<svg width="100%" height="100%" viewBox="0 0 1200 300" version="1.1" xmlns="http://www.w3.org/2000/svg" xmlns:xlink="http://www.w3.org/1999/xlink" xml:space="preserve" xmlns:serif="http://www.serif.com/" style="fill-rule:evenodd;clip-rule:evenodd;stroke-linejoin:round;stroke-miterlimit:2;">
    <g transform="matrix(1,0,0,1,-71.8909,-151.542)">
        <path d="M305.834,371.222C290.456,383.472 270.987,390.794 249.822,390.794C200.149,390.794 159.822,350.466 159.822,300.794C159.822,251.121 200.149,210.794 249.822,210.794C299.494,210.794 339.822,251.121 339.822,300.794C339.822,321.378 332.896,340.357 321.251,355.527L378.502,412.777L362.945,428.334L336.425,401.813C313.26,421.699 283.149,433.712 250.255,433.712C177.126,433.712 117.755,374.341 117.755,301.212C117.755,275.829 124.908,252.104 137.321,231.948L153.384,248.011C144.886,263.612 140.057,281.496 140.057,300.498C140.057,361.209 189.347,410.498 250.057,410.498C276.612,410.498 300.982,401.068 319.992,385.38L305.834,371.222ZM150.538,214.052C174.802,186.263 210.495,168.712 250.255,168.712C323.384,168.712 382.755,228.083 382.755,301.212C382.755,325.798 376.044,348.829 364.329,368.562L347.419,351.652C355.496,336.378 360.057,318.966 360.057,300.498C360.057,239.787 310.768,190.498 250.057,190.498C216.375,190.498 186.208,205.67 166.044,229.558L150.538,214.052ZM195.251,260.64L289.51,354.898C278.383,362.983 264.692,367.755 249.894,367.755C212.64,367.755 182.394,337.509 182.394,300.255C182.394,285.458 187.166,271.766 195.251,260.64ZM304.979,339.255L210.895,245.17C221.909,237.353 235.369,232.755 249.894,232.755C287.149,232.755 317.394,263.001 317.394,300.255C317.394,314.781 312.796,328.241 304.979,339.255Z" style="fill:white;"/>
    </g>
    <g transform="matrix(1.13639,0,0,0.628104,342.806,-12.8892)">
        <path d="M190.99,244.193L207.984,285.537L186.04,285.537L177.873,265.835C168.963,276.781 159.269,283.199 148.792,285.089C138.315,286.98 128.209,284.219 118.474,276.806C108.739,269.392 100.544,258.074 93.889,242.849C87.234,227.625 83.027,210.584 81.267,191.728C79.507,172.872 80.318,154.413 83.701,136.353C87.083,118.293 92.734,102.695 100.654,89.56C108.574,76.426 117.663,67.595 127.92,63.067C138.177,58.539 148.407,58.689 158.609,63.515C168.811,68.341 177.818,77.421 185.627,90.755C193.437,104.088 198.951,119.86 202.168,138.07C205.386,156.279 206.032,174.762 204.107,193.519C202.182,212.276 197.81,229.167 190.99,244.193ZM180.018,217.625C184.197,206.281 186.645,193.942 187.36,180.608C188.075,167.275 187.016,154.389 184.184,141.95C181.351,129.512 177.02,118.964 171.19,110.307C165.36,101.65 158.802,96.003 151.514,93.367C144.227,90.73 137.036,91.327 129.941,95.158C122.846,98.989 116.631,105.73 111.296,115.382C103.157,130.01 98.784,147.697 98.179,168.444C97.574,189.191 100.874,207.624 108.079,223.744C112.809,234.292 118.597,242.178 125.445,247.402C132.292,252.626 139.415,254.616 146.812,253.372C154.209,252.128 161.043,247.775 167.313,240.312L150.071,198.519L172.098,198.519L180.018,217.625Z" style="fill:white;fill-rule:nonzero;"/>
        <path d="M307.56,60.007L307.56,210.908C307.615,224.341 305.814,236.879 302.156,248.521C298.499,260.163 293.453,269.368 287.018,276.134C280.583,282.9 273.667,286.284 266.27,286.284C258.872,286.284 251.956,282.9 245.521,276.134C239.086,269.368 234.04,260.163 230.383,248.521C226.725,236.879 224.924,224.341 224.979,210.908L224.979,60.007L242.634,60.007L242.634,210.908C242.579,218.57 243.596,225.759 245.686,232.476C247.776,239.192 250.664,244.491 254.349,248.372C258.033,252.253 262.007,254.193 266.27,254.193C270.532,254.193 274.506,252.253 278.191,248.372C281.875,244.491 284.763,239.192 286.853,232.476C288.943,225.759 289.96,218.57 289.905,210.908L289.905,60.007L307.56,60.007Z" style="fill:white;fill-rule:nonzero;"/>
        <rect x="324.472" y="60.156" width="17.655" height="225.381" style="fill:white;fill-rule:nonzero;"/>
        <path d="M453.252,60.156L389.976,253.596L446.652,253.596L446.652,285.537L359.039,285.537L422.398,91.949L364.896,91.949L364.896,60.156L453.252,60.156Z" style="fill:white;fill-rule:nonzero;"/>
        <path d="M489.304,285.537L470.329,285.537L521.808,51.201L572.627,285.537L553.653,285.537L543.918,240.61L499.204,240.61L489.304,285.537ZM521.726,138.07L506.216,208.669L536.988,208.669L521.726,138.07Z" style="fill:white;fill-rule:nonzero;"/>
        <path d="M693.322,285.537L675.75,285.537L675.75,147.025L641.266,223.893L607.194,147.473L607.194,285.537L589.539,285.537L589.539,56.873L641.266,173.145L693.322,57.171L693.322,285.537Z" style="fill:white;fill-rule:nonzero;"/>
    </g>
    <g transform="matrix(1,0,0,0.822418,-71.8909,-166.378)">
        <path d="M525.438,494.621L525.438,521.751L515.406,521.751L515.406,435.686L542.172,435.686C548.109,435.686 553.328,438.013 557.828,442.668C562.328,447.323 565.078,453.203 566.078,460.309C567.047,467.414 566.016,474.054 562.984,480.229C559.953,486.404 555.641,490.669 550.047,493.025L568.234,521.751L555.438,521.751L538.422,494.621L525.438,494.621ZM525.438,447.826L525.438,482.423L542.172,482.423C546.109,482.423 549.469,480.742 552.25,477.379C555.031,474.016 556.422,469.941 556.422,465.153C556.422,460.366 555.031,456.281 552.25,452.899C549.469,449.517 546.109,447.826 542.172,447.826L525.438,447.826Z" style="fill:white;fill-rule:nonzero;"/>
        <path d="M629.772,509.554L629.772,521.751L587.397,521.751L587.397,435.686L629.772,435.686L629.772,447.826L597.428,447.826L597.428,482.423L625.459,482.423L625.459,494.621L597.428,494.621L597.428,509.554L629.772,509.554Z" style="fill:white;fill-rule:nonzero;"/>
        <path d="M659.153,466.521L659.153,521.124L649.122,521.124L649.122,434.546L689.903,490.175L689.903,435.059L699.934,435.059L699.934,522.15L659.153,466.521Z" style="fill:white;fill-rule:nonzero;"/>
        <path d="M754.534,521.751C748.128,521.751 742.206,519.832 736.769,515.994C731.331,512.157 727.027,506.932 723.855,500.32C720.683,493.709 719.097,486.508 719.097,478.719C719.097,470.929 720.683,463.728 723.855,457.117C727.027,450.505 731.331,445.281 736.769,441.443C742.206,437.605 748.128,435.686 754.534,435.686C759.347,435.686 763.933,436.826 768.292,439.106C772.652,441.386 776.409,444.445 779.566,448.282C782.722,452.12 785.238,456.689 787.113,461.99C788.988,467.291 789.925,472.867 789.925,478.719C789.925,484.57 788.988,490.146 787.113,495.447C785.238,500.748 782.722,505.317 779.566,509.155C776.409,512.992 772.652,516.051 768.292,518.331C763.933,520.611 759.347,521.751 754.534,521.751ZM754.534,447.826C751.097,447.826 747.808,448.643 744.667,450.277C741.527,451.911 738.823,454.106 736.558,456.86C734.292,459.615 732.488,462.902 731.144,466.721C729.8,470.54 729.128,474.539 729.128,478.719C729.128,484.304 730.261,489.462 732.527,494.193C734.792,498.924 737.878,502.667 741.784,505.421C745.691,508.176 749.941,509.554 754.534,509.554C759.128,509.554 763.37,508.176 767.261,505.421C771.152,502.667 774.23,498.924 776.495,494.193C778.761,489.462 779.894,484.304 779.894,478.719C779.894,473.133 778.761,467.965 776.495,463.215C774.23,458.466 771.152,454.713 767.261,451.959C763.37,449.204 759.128,447.826 754.534,447.826Z" style="fill:white;fill-rule:nonzero;"/>
        <path d="M840.259,436.085L850.9,436.085L825.306,523.005L799.525,436.085L810.213,436.085L825.259,486.983L840.259,436.085Z" style="fill:white;fill-rule:nonzero;"/>
        <path d="M861.625,521.751L850.844,521.751L880.094,432.266L908.969,521.751L898.188,521.751L892.656,504.595L867.25,504.595L861.625,521.751ZM880.047,465.438L871.234,492.398L888.719,492.398L880.047,465.438Z" style="fill:white;fill-rule:nonzero;"/>
        <path d="M929.303,521.751L929.303,447.826L913.788,447.826L913.788,435.686L954.803,435.686L954.803,447.826L939.288,447.826L939.288,521.751L929.303,521.751Z" style="fill:white;fill-rule:nonzero;"/>
        <rect x="973.966" y="435.686" width="10.031" height="86.065" style="fill:white;fill-rule:nonzero;"/>
        <path d="M1038.64,521.751C1032.24,521.751 1026.32,519.832 1020.88,515.994C1015.44,512.157 1011.14,506.932 1007.96,500.32C1004.79,493.709 1003.21,486.508 1003.21,478.719C1003.21,470.929 1004.79,463.728 1007.96,457.117C1011.14,450.505 1015.44,445.281 1020.88,441.443C1026.32,437.605 1032.24,435.686 1038.64,435.686C1043.46,435.686 1048.04,436.826 1052.4,439.106C1056.76,441.386 1060.52,444.445 1063.67,448.282C1066.83,452.12 1069.35,456.689 1071.22,461.99C1073.1,467.291 1074.03,472.867 1074.03,478.719C1074.03,484.57 1073.1,490.146 1071.22,495.447C1069.35,500.748 1066.83,505.317 1063.67,509.155C1060.52,512.992 1056.76,516.051 1052.4,518.331C1048.04,520.611 1043.46,521.751 1038.64,521.751ZM1038.64,447.826C1035.21,447.826 1031.92,448.643 1028.78,450.277C1025.64,451.911 1022.93,454.106 1020.67,456.86C1018.4,459.615 1016.6,462.902 1015.25,466.721C1013.91,470.54 1013.24,474.539 1013.24,478.719C1013.24,484.304 1014.37,489.462 1016.64,494.193C1018.9,498.924 1021.99,502.667 1025.89,505.421C1029.8,508.176 1034.05,509.554 1038.64,509.554C1043.24,509.554 1047.48,508.176 1051.37,505.421C1055.26,502.667 1058.34,498.924 1060.61,494.193C1062.87,489.462 1064,484.304 1064,478.719C1064,473.133 1062.87,467.965 1060.61,463.215C1058.34,458.466 1055.26,454.713 1051.37,451.959C1047.48,449.204 1043.24,447.826 1038.64,447.826Z" style="fill:white;fill-rule:nonzero;"/>
        <path d="M1103.28,466.521L1103.28,521.124L1093.24,521.124L1093.24,434.546L1134.03,490.175L1134.03,435.059L1144.06,435.059L1144.06,522.15L1103.28,466.521Z" style="fill:white;fill-rule:nonzero;"/>
        <path d="M1180.52,509.554L1180.8,509.554C1183.36,509.554 1185.66,508.604 1187.71,506.704C1189.76,504.804 1191.11,502.334 1191.77,499.294C1192.42,496.254 1192.26,493.291 1191.27,490.403C1190.29,487.515 1188.69,485.292 1186.47,483.734L1171.52,473.247C1168.3,470.967 1165.97,467.718 1164.53,463.5C1163.09,459.283 1162.86,454.97 1163.83,450.562C1164.8,446.192 1166.77,442.621 1169.73,439.847C1172.7,437.073 1176.06,435.686 1179.81,435.686L1181.27,435.686C1184.2,435.686 1186.94,436.57 1189.49,438.336C1192.04,440.103 1194.06,442.526 1195.56,445.604L1186.94,451.759C1186.34,450.543 1185.55,449.584 1184.55,448.881C1183.55,448.178 1182.45,447.826 1181.27,447.826L1179.81,447.826C1178.34,447.826 1177.02,448.377 1175.83,449.479C1174.64,450.581 1173.86,452.006 1173.48,453.754C1173.11,455.502 1173.2,457.202 1173.77,458.855C1174.33,460.508 1175.25,461.791 1176.53,462.702L1191.48,473.247C1195.67,476.173 1198.69,480.362 1200.56,485.815C1202.41,491.267 1202.7,496.824 1201.42,502.486C1200.14,508.148 1197.59,512.774 1193.76,516.365C1189.93,519.956 1185.61,521.751 1180.8,521.751L1180.52,521.751C1177.17,521.789 1174.01,520.896 1171.02,519.072C1168.04,517.248 1165.53,514.702 1163.5,511.435L1171.47,504.082C1172.53,505.83 1173.86,507.179 1175.45,508.129C1177.05,509.079 1178.73,509.554 1180.52,509.554Z" style="fill:white;fill-rule:nonzero;"/>
    </g>
    <g transform="matrix(1.07974,0,0,1.00273,-106.683,-152.002)">
        <rect x="436.327" y="168.712" width="4.631" height="264.279" style="fill:white;"/>
    </g>
</svg>
